HIERARCHY
ROOT Hips
{
  OFFSET 43.0842 91.1655 101.099
  CHANNELS 6 Xposition Yposition Zposition Zrotation Xrotation Yrotation
  JOINT LeftUpLeg
  {
    OFFSET 8.64259 1.95398 -2.38835
    CHANNELS 3 Zrotation Xrotation Yrotation
    JOINT LeftLeg
    {
      OFFSET 43.7702 0 0
      CHANNELS 3 Zrotation Xrotation Yrotation
      JOINT LeftFoot
      {
        OFFSET 40.6238 0 0
        CHANNELS 3 Zrotation Xrotation Yrotation
        JOINT LeftToeBase
        {
          OFFSET 12.7242 0 0
          CHANNELS 3 Zrotation Xrotation Yrotation
          End Site
          {
            OFFSET 0 0 0
          }
        }
      }
    }
  }
  JOINT RightUpLeg
  {
    OFFSET -8.2249 1.95398 -2.59336
    CHANNELS 3 Zrotation Xrotation Yrotation
    JOINT RightLeg
    {
      OFFSET 43.5653 0 0
      CHANNELS 3 Zrotation Xrotation Yrotation
      JOINT RightFoot
      {
        OFFSET 40.6238 0 0
        CHANNELS 3 Zrotation Xrotation Yrotation
        JOINT RightToeBase
        {
          OFFSET 12.7242 0 0
          CHANNELS 3 Zrotation Xrotation Yrotation
          End Site
          {
            OFFSET 0 0 0
          }
        }
      }
    }
  }
  JOINT Spine
  {
    OFFSET 0.165834 0.87714 6.61349
    CHANNELS 3 Zrotation Xrotation Yrotation
    JOINT Spine1
    {
      OFFSET 7.38963 1.71661e-005 0
      CHANNELS 3 Zrotation Xrotation Yrotation
      JOINT Spine2
      {
        OFFSET 11.9445 1.14441e-005 0
        CHANNELS 3 Zrotation Xrotation Yrotation
        JOINT Spine3
        {
          OFFSET 14.7254 4.19617e-005 0
          CHANNELS 3 Zrotation Xrotation Yrotation
          JOINT Spine4
          {
            OFFSET 10.9679 0 0
            CHANNELS 3 Zrotation Xrotation Yrotation
            JOINT RightShoulder
            {
              OFFSET 2.46616 -1.6653 3.69651
              CHANNELS 3 Zrotation Xrotation Yrotation
              JOINT RightArm
              {
                OFFSET 13.0012 0 0
                CHANNELS 3 Zrotation Xrotation Yrotation
                JOINT RightForeArm
                {
                  OFFSET 28.7848 1.52588e-005 0
                  CHANNELS 3 Zrotation Xrotation Yrotation
                  JOINT RightHand
                  {
                    OFFSET 26.5688 1.52588e-005 0
                    CHANNELS 3 Zrotation Xrotation Yrotation
                    End Site
                    {
                      OFFSET 0 0 0
                    }
                  }
                }
              }
            }
            JOINT LeftShoulder
            {
              OFFSET 2.38034 -1.29275 -3.7523
              CHANNELS 3 Zrotation Xrotation Yrotation
              JOINT LeftArm
              {
                OFFSET 16.3182 6.10351e-005 0
                CHANNELS 3 Zrotation Xrotation Yrotation
                JOINT LeftForeArm
                {
                  OFFSET 27.0901 0 0
                  CHANNELS 3 Zrotation Xrotation Yrotation
                  JOINT LeftHand
                  {
                    OFFSET 24.5451 1.52588e-005 0
                    CHANNELS 3 Zrotation Xrotation Yrotation
                    End Site
                    {
                      OFFSET 0 0 0
                    }
                  }
                }
              }
            }
            JOINT Neck
            {
              OFFSET 5.0226 -0.0266342 0
              CHANNELS 3 Zrotation Xrotation Yrotation
              JOINT Head
              {
                OFFSET 6.69364 2.86102e-005 0
                CHANNELS 3 Zrotation Xrotation Yrotation
                End Site
                {
                  OFFSET 0 0 0
                }
              }
            }
          }
        }
      }
    }
  }
}
MOTION
Frames:	13
Frame Time:	0.0333333
89.9996 92.6826 31.8435 95.5366 -20.011 91.9281 -171.811 4.05983 94.2522 -28.4712 15.3727 -3.48426 65.1682 3.66016 18.9914 33.8982 3.02669 6.45157 172.833 12.7813 82.1814 -15.6282 -2.97691 0.215804 57.5724 1.01366 -2.84412 26.6021 1.92157 -1.71739 -0.205339 7.36594 -89.7161 12.1378 -0.273767 0.596972 0.466738 -0.247247 0.608444 -22.0679 -0.440548 0.487097 -2.05521 -0.440525 0.487103 94.8858 -49.0339 -93.4372 34.2901 41.3888 -32.518 -11.4832 -12.854 -133.193 -9.99125 -0.956973 13.1749 -92.7164 -48.5269 74.296 -12.535 7.95282 -56.7118 7.60958 10.6564 -111.671 14.648 1.46699 2.46196 -32.2023 -15.3719 -10.2221 -3.1771 -17.4425 -13.6861 
90.0119 92.6611 31.8516 95.4484 -20.0126 91.8903 -171.847 4.13723 94.2353 -28.5282 15.4644 -3.48046 65.2317 3.73806 19.0355 33.8459 2.88856 6.56387 172.839 12.8515 82.1889 -15.6319 -2.94305 0.215642 57.6421 0.881615 -2.86404 26.573 1.94466 -1.73174 -0.220389 7.36901 -89.7011 12.1376 -0.296639 0.629231 0.466567 -0.268676 0.641677 -22.068 -0.472057 0.510989 -2.05534 -0.472043 0.510989 94.7303 -49.1304 -93.6662 34.3371 41.4442 -32.6146 -11.7859 -12.8188 -133.318 -9.96005 -0.937777 13.3204 -92.4809 -48.3016 74.5921 -12.8179 7.84679 -56.8152 7.76808 10.7562 -111.522 14.6281 1.47072 2.35237 -32.2593 -15.0738 -10.4948 -2.7998 -17.2186 -13.1857 
90.0674 92.6398 31.8693 95.3047 -20.0391 91.8707 -171.848 4.15213 94.2365 -28.4001 15.4898 -3.49733 65.3457 3.99466 19.0287 33.7771 2.66049 6.79011 172.923 12.9519 82.281 -15.585 -2.29768 0.181661 57.7249 0.740766 -2.76712 26.4858 1.84697 -1.35671 -0.230589 7.36259 -89.6975 12.1492 -0.315208 0.638536 0.47818 -0.286806 0.651788 -22.0564 -0.492558 0.514282 -2.04375 -0.492549 0.514281 94.5744 -49.1144 -93.9127 34.5439 41.6287 -32.7512 -12.1885 -12.9016 -133.613 -9.86752 -0.897291 13.4036 -92.3725 -48.2348 74.7382 -12.7139 7.98029 -56.9665 7.71507 10.6219 -111.363 14.8964 1.5 2.61653 -32.1518 -14.6671 -10.7209 -2.1011 -16.8832 -12.4742 
90.1516 92.6272 31.895 95.229 -20.0839 91.9339 -171.802 4.12908 94.3058 -28.3293 15.3448 -3.49285 65.4654 4.23781 18.8884 33.7176 2.49877 6.92227 172.922 13.0109 82.3528 -15.6582 -2.51966 0.234235 57.7546 0.784455 -2.96811 26.5984 1.85619 -1.54797 -0.225562 7.34364 -89.7112 12.1871 -0.311603 0.610964 0.516058 -0.284398 0.624074 -22.0186 -0.480833 0.489066 -2.00594 -0.48083 0.489063 94.5959 -48.9965 -93.8968 34.5744 41.5868 -32.537 -12.2736 -12.9494 -134.004 -9.99507 -0.95043 13.3456 -92.49 -48.3597 74.5933 -12.5404 8.16769 -56.784 6.77618 10.7683 -111.098 15.618 1.60988 2.74751 -32.0057 -14.2483 -10.862 -1.7319 -16.4779 -11.6565 
90.2646 92.6349 31.9276 95.28 -20.0882 91.9807 -171.759 3.92277 94.331 -28.208 15.3381 -3.47572 65.5507 4.49356 18.8066 33.6468 2.25107 7.17221 172.891 12.9667 82.4101 -15.728 -1.89471 0.239449 57.8337 0.727158 -2.79157 26.6262 1.85457 -1.58514 -0.221675 7.35485 -89.7047 12.1647 -0.300848 0.622675 0.493589 -0.273134 0.635301 -22.041 -0.474127 0.503466 -2.02835 -0.474094 0.503468 94.6364 -49.1556 -93.8094 34.2338 41.3152 -32.4316 -12.0732 -12.8141 -133.958 -10.765 -1.25992 13.2098 -92.5015 -48.2797 74.5549 -12.9482 7.67963 -56.7088 6.72412 11.1237 -110.78 15.0795 1.58221 1.78993 -31.7628 -13.8552 -11.0377 -2.0279 -16.0364 -11.2392 
90.426 92.6042 31.9607 95.365 -20.1566 91.9651 -171.729 3.65486 94.273 -28.1099 15.3119 -3.48476 65.6473 4.68866 18.8669 33.6175 2.16124 7.25283 172.822 13.0566 82.337 -16.2165 -2.05668 0.219559 58.0324 0.59522 -2.8027 26.7627 1.72738 -1.46902 -0.211897 7.37196 -89.6979 12.1304 -0.278294 0.633548 0.459294 -0.250147 0.645181 -22.0752 -0.455891 0.520615 -2.06255 -0.455856 0.520622 94.7458 -49.2428 -93.6255 34.2406 41.2477 -32.6365 -11.8054 -13.0405 -133.87 -11.2115 -1.43588 13.2083 -92.6199 -48.3168 74.3857 -12.9411 7.40037 -56.6906 7.1329 11.0107 -110.615 14.7037 1.54606 1.37717 -31.7085 -13.6799 -11.1091 -2.3186 -15.834 -11.1496 
90.5976 92.5377 32.014 95.369 -20.1677 91.9532 -171.71 3.55982 94.2746 -28.2159 15.2083 -3.48596 65.7779 4.83616 18.799 33.6631 2.22592 7.25375 172.783 13.1366 82.3276 -16.5711 -2.39706 0.202384 58.2505 0.437058 -3.25433 27.0356 1.66053 -1.70964 -0.214056 7.38546 -89.705 12.1034 -0.286022 0.620162 0.432309 -0.258462 0.632146 -22.1022 -0.459188 0.505529 -2.0896 -0.459194 0.50553 94.8802 -49.3219 -93.4043 34.2057 40.9307 -32.7578 -11.5358 -12.9518 -134.021 -10.9727 -1.34327 13.1732 -92.4759 -48.1775 74.5669 -13.4968 7.1444 -56.7964 5.94998 11.6755 -110.259 14.1867 1.51591 0.722442 -31.8092 -13.6257 -11.3122 -2.09332 -15.8297 -10.6946 
90.7615 92.5104 32.0777 95.2696 -20.1108 91.9342 -171.734 3.61435 94.326 -28.3455 15.2245 -3.46039 65.7491 4.64333 18.8364 33.9311 2.73248 7.04178 172.84 13.2189 82.3801 -16.8181 -2.53892 0.136117 58.3484 0.370923 -3.60042 27.3159 1.51472 -1.762 -0.229677 7.39078 -89.7312 12.0929 -0.329559 0.572604 0.421875 -0.304047 0.586542 -22.1129 -0.486392 0.447091 -2.1003 -0.486411 0.447083 94.8745 -49.2282 -93.4268 34.4318 41.1724 -32.9975 -11.3164 -13.2373 -134.292 -10.6858 -1.22411 13.3251 -92.4792 -48.2536 74.5816 -13.8473 6.67554 -56.8546 4.61682 12.3383 -109.925 13.3792 1.43802 0.0935009 -32.0223 -13.6042 -11.2057 -1.75932 -15.8429 -10.4976 
90.9683 92.4869 32.1679 95.1749 -20.0865 91.955 -171.614 3.73661 94.5115 -28.5355 15.1764 -3.58322 65.6713 4.22101 19.076 34.2956 3.56644 6.48033 172.897 13.3946 82.3896 -17.4722 -3.26763 0.0680297 58.4666 0.198356 -3.65775 27.7962 1.41946 -2.25705 -0.251694 7.39602 -89.7394 12.0825 -0.377211 0.561506 0.411476 -0.352135 0.577555 -22.1235 -0.528528 0.422184 -2.11085 -0.528513 0.422183 94.8157 -49.4043 -93.4929 34.5321 41.3152 -33.1042 -11.2286 -13.3706 -134.695 -9.5926 -0.779329 13.5784 -92.1242 -47.9375 75.0383 -13.8762 7.03297 -57.0637 5.59688 12.1131 -110.03 14.3596 1.54635 0.642031 -31.9405 -13.5444 -11.5407 -1.87708 -15.8003 -10.0991 
91.2398 92.4787 32.325 95.2588 -20.0695 92.0368 -171.375 3.4005 94.7245 -28.3789 15.0445 -3.67827 65.621 4.17113 18.9613 34.4732 3.88347 6.35579 172.865 13.499 82.5808 -18.1547 -1.58323 0.0196095 59.0134 -0.437514 -2.90364 27.5072 1.55764 -2.16889 -0.260581 7.41895 -89.7561 12.0368 -0.402871 0.530613 0.365792 -0.379103 0.547824 -22.1694 -0.543725 0.385004 -2.1567 -0.543717 0.385006 94.8247 -49.2412 -93.5027 34.0924 40.3743 -32.2966 -11.5139 -12.1711 -135.049 -8.82921 -0.474906 13.5931 -91.8233 -47.5182 75.3876 -14.2261 7.41755 -57.3605 6.71254 12.0105 -109.992 14.9662 1.62646 0.777911 -31.9853 -13.4358 -11.8795 -1.84048 -15.7387 -9.75692 
91.5814 92.4119 32.569 95.1973 -20.2752 92.0491 -171.188 3.07668 94.8465 -28.2192 14.8441 -3.69866 65.705 4.45312 18.7313 34.6479 3.93689 6.69887 172.856 13.9865 82.8249 -19.2907 -0.207265 0.00389539 59.8469 -1.2064 -2.42024 27.2997 1.63766 -2.05398 -0.243606 7.40974 -89.7958 12.055 -0.387796 0.449848 0.384062 -0.36763 0.466477 -22.1512 -0.505091 0.312498 -2.13856 -0.505094 0.312498 94.9041 -48.8657 -93.4333 34.12 39.9792 -31.9901 -11.5663 -11.8817 -135.33 -9.19047 -0.625283 13.4702 -92.1261 -47.6912 74.97 -14.2004 7.20029 -57.3325 6.60069 12.0635 -109.574 14.7879 1.62091 0.443495 -32.5311 -13.2762 -11.6539 -1.52799 -15.6447 -9.98097 
91.9453 92.2201 32.912 95.0261 -20.8579 91.9121 -171.087 2.80852 94.8787 -28.215 14.6336 -3.7483 65.9653 4.88962 18.816 34.8746 4.08377 7.00534 172.946 15.3224 82.8987 -21.9159 -0.403778 -0.0760795 60.6607 -1.9002 -2.04195 28.2174 1.33221 -2.68585 -0.213308 7.39276 -89.8119 12.0888 -0.335052 0.412134 0.417826 -0.316626 0.42648 -22.1174 -0.44346 0.29238 -2.10472 -0.443445 0.292378 94.9637 -48.7627 -93.3547 34.3307 39.9442 -32.2217 -11.5386 -12.1601 -135.833 -9.12574 -0.594199 13.5687 -92.2302 -47.8063 74.8416 -14.2344 6.77308 -57.2651 6.43512 12.3036 -109.477 14.6633 1.61831 0.210327 -32.8433 -13.1625 -11.444 -1.31345 -15.5557 -10.0362 
92.3222 91.8951 33.3901 94.9052 -21.9568 91.6565 -170.985 2.31831 94.8122 -28.1921 13.7298 -3.81135 66.5006 5.83927 19.1397 35.0129 4.38436 6.81153 173.096 17.6364 82.9712 -26.2303 -0.925962 -0.203675 61.7852 -2.6729 -2.00991 29.0236 1.06375 -3.26874 -0.164507 7.38245 -89.7912 12.1093 -0.228278 0.441681 0.438333 -0.208642 0.451293 -22.0966 -0.350506 0.352648 -2.08392 -0.350473 0.352647 94.8024 -48.7256 -93.613 33.9508 39.0483 -31.8493 -11.0388 -11.8394 -136.061 -9.74992 -0.847526 13.4419 -91.947 -47.5518 75.2078 -13.7051 6.80749 -57.7683 6.40344 11.8678 -109.49 14.627 1.60405 0.349029 -33.033 -12.9125 -11.4168 -0.872839 -15.3425 -9.61308 
